<?xml version="1.0" encoding="utf-8"?>
<!-- Generator: Adobe Illustrator 27.0.0, SVG Export Plug-In . SVG Version: 6.00 Build 0)  -->
<svg version="1.1" id="Layer_1" xmlns="http://www.w3.org/2000/svg" xmlns:xlink="http://www.w3.org/1999/xlink" x="0px" y="0px"
	 viewBox="0 0 1920 1080" style="enable-background:new 0 0 1920 1080;" xml:space="preserve">
<style type="text/css">
	.st0{fill:#736CBC;}
	.st1{fill:#7C72B2;}
	
		.st2{clip-path:url(#SVGID_00000077296791273183771290000008758801135184366242_);fill:url(#SVGID_00000008832428956452340840000003616677825978196148_);}
	
		.st3{clip-path:url(#SVGID_00000077296791273183771290000008758801135184366242_);fill:url(#SVGID_00000020374606779150049380000006459703132641071539_);}
	.st4{clip-path:url(#SVGID_00000077296791273183771290000008758801135184366242_);fill:none;stroke:#FFFFFF;stroke-width:4;}
</style>
<g>
	<g>
		<g>
			<path class="st0" d="M727.6,444.98h14.57v57.62h30.45v12.02H727.6V444.98z"/>
			<path class="st0" d="M796.09,444.98h46.13V457h-31.56v16.7h29.78v11.44h-29.78v17.47h31.56v12.02h-46.13V444.98z"/>
			<path class="st0" d="M887.41,444.98h12.89v13.51h-4.44l-17.42,56.12h-15.3L887.41,444.98z M879.78,486.82h32.48l3.57,10.91
				h-39.62L879.78,486.82z M896.14,458.5v-13.51h8.45l24.27,69.64h-15.35L896.14,458.5z"/>
			<path class="st0" d="M950.83,444.98h28.76c5.21,0,9.68,0.89,13.39,2.68c3.71,1.79,6.56,4.34,8.54,7.65
				c1.98,3.31,2.97,7.3,2.97,11.97v0.1c0,4.6-1.13,8.68-3.4,12.23c-2.27,3.56-5.33,6.09-9.19,7.6l14.67,27.41h-16.55l-12.93-25.19
				c-0.13,0-0.25,0-0.36,0s-0.23,0-0.36,0H965.4v25.19h-14.57V444.98z M978,478.33c3.6,0,6.43-0.97,8.49-2.9
				c2.06-1.93,3.09-4.6,3.09-8.01v-0.1c0-3.35-1.07-6-3.21-7.96c-2.14-1.96-4.99-2.94-8.57-2.94h-12.4v21.91H978z"/>
			<path class="st0" d="M1028.92,444.98h12.74l37.83,54.48l-12.21-9.22h6.13v-45.27h14.53v69.64h-12.64l-37.93-54.77l12.21,9.22
				h-6.13v45.56h-14.53V444.98z"/>
			<path class="st0" d="M1114.35,444.98h14.57v69.64h-14.57V444.98z"/>
			<path class="st0" d="M1155.33,444.98h12.74l37.83,54.48l-12.21-9.22h6.13v-45.27h14.53v69.64h-12.64l-37.93-54.77l12.21,9.22
				h-6.13v45.56h-14.53V444.98z"/>
			<path class="st0" d="M1254.22,511.48c-5.02-2.9-8.89-7.05-11.61-12.45c-2.72-5.4-4.08-11.89-4.08-19.45v-0.05
				c0-7.46,1.35-13.86,4.05-19.18c2.7-5.32,6.55-9.42,11.53-12.28c4.99-2.86,10.87-4.29,17.66-4.29c5.6,0,10.54,1,14.82,2.99
				c4.28,2,7.76,4.71,10.45,8.13s4.42,7.33,5.19,11.7l0.14,0.72h-14.67l-0.14-0.53c-1.16-3.35-3.09-5.96-5.79-7.84
				s-6.02-2.82-9.94-2.82c-3.83,0-7.12,0.92-9.87,2.75c-2.75,1.83-4.86,4.49-6.32,7.96s-2.2,7.67-2.2,12.6v0.05
				c0,4.99,0.77,9.27,2.32,12.86c1.54,3.59,3.73,6.34,6.56,8.25c2.83,1.91,6.18,2.87,10.04,2.87c3.15,0,5.94-0.59,8.35-1.76
				c2.41-1.17,4.33-2.83,5.74-4.97c1.42-2.14,2.17-4.64,2.27-7.5l0.05-0.97h-15.88v-10.91h30.11v8.01c0,6.34-1.23,11.77-3.69,16.31
				c-2.46,4.54-5.99,8.03-10.59,10.47c-4.6,2.45-10.13,3.67-16.6,3.67C1265.21,515.83,1259.24,514.38,1254.22,511.48z"/>
			<path class="st0" d="M1374.64,511.17c-4.67-2.98-8.28-7.15-10.83-12.52c-2.56-5.37-3.84-11.66-3.84-18.87v-0.1
				c0-7.27,1.27-13.58,3.81-18.92c2.54-5.34,6.14-9.47,10.79-12.4c4.65-2.93,10.13-4.39,16.43-4.39c4.76,0,9.01,0.93,12.74,2.77
				c3.73,1.85,6.8,4.42,9.22,7.7s4.04,7.06,4.87,11.34l0.1,0.48h-3.76l-0.15-0.63c-0.87-3.54-2.33-6.67-4.39-9.39
				c-2.06-2.72-4.66-4.86-7.79-6.42s-6.75-2.34-10.83-2.34c-5.53,0-10.34,1.32-14.41,3.96c-4.07,2.64-7.21,6.37-9.43,11.2
				c-2.22,4.83-3.33,10.5-3.33,17.04v0.1c0,6.5,1.13,12.17,3.38,17.01c2.25,4.84,5.41,8.61,9.48,11.29
				c4.07,2.69,8.84,4.03,14.31,4.03c4.08,0,7.69-0.78,10.81-2.34c3.12-1.56,5.73-3.72,7.82-6.47c2.09-2.75,3.57-5.93,4.44-9.53
				l0.1-0.43h3.76l-0.1,0.48c-0.84,4.28-2.46,8.06-4.87,11.34c-2.41,3.28-5.49,5.85-9.22,7.7c-3.73,1.85-7.98,2.77-12.74,2.77
				C1384.76,515.63,1379.31,514.15,1374.64,511.17z"/>
			<path class="st0" d="M1453.8,512.5c-3.89-2.09-6.88-5.02-8.98-8.78s-3.14-8.19-3.14-13.27v-45.46h3.76v45.31
				c0,6.63,1.99,11.92,5.96,15.88c3.97,3.96,9.39,5.94,16.24,5.94c6.92,0,12.35-1.98,16.31-5.94c3.96-3.96,5.94-9.25,5.94-15.88
				v-45.31h3.81v45.46c0,5.08-1.06,9.52-3.18,13.29c-2.12,3.78-5.12,6.71-9,8.78c-3.88,2.08-8.5,3.11-13.88,3.11
				C1462.31,515.63,1457.69,514.59,1453.8,512.5z"/>
			<path class="st0" d="M1520.84,444.98h22.54c4.63,0,8.61,0.8,11.94,2.41c3.33,1.61,5.9,3.9,7.7,6.88c1.8,2.98,2.7,6.51,2.7,10.59
				v0.1c0,4.99-1.42,9.18-4.27,12.57c-2.85,3.39-6.8,5.61-11.85,6.64l17.9,30.45h-4.39l-17.42-29.87c-0.35,0.03-0.79,0.06-1.3,0.07
				c-0.52,0.02-0.97,0.02-1.35,0.02h-18.43v29.78h-3.76V444.98z M1543.18,481.42c5.82,0,10.39-1.46,13.71-4.37
				c3.31-2.91,4.97-6.92,4.97-12.04v-0.1c0-5.18-1.66-9.22-4.99-12.11s-7.92-4.34-13.78-4.34h-18.48v32.96H1543.18z"/>
			<path class="st0" d="M1585.85,444.98h4.05l24.37,64.76h0.1l24.37-64.76h4.05l-26.54,69.64h-3.81L1585.85,444.98z"/>
			<path class="st0" d="M1664.81,444.98h40.59v3.47h-36.82v28.71h35.04v3.47h-35.04v30.5h36.82v3.47h-40.59V444.98z"/>
		</g>
	</g>
	<g>
		<g>
			<path class="st1" d="M732.33,595.63v-37.99h12.84c2.97,0,5.4,0.5,7.31,1.51c1.9,1.01,3.31,2.39,4.23,4.15
				c0.92,1.76,1.37,3.75,1.37,5.99s-0.46,4.22-1.37,5.96c-0.92,1.73-2.32,3.09-4.21,4.07c-1.89,0.98-4.31,1.47-7.25,1.47h-10.39
				v-4.16h10.24c2.03,0,3.66-0.3,4.91-0.89c1.24-0.59,2.15-1.44,2.71-2.53c0.56-1.1,0.84-2.4,0.84-3.92s-0.28-2.85-0.85-3.99
				c-0.57-1.14-1.48-2.02-2.73-2.64c-1.25-0.62-2.9-0.94-4.95-0.94h-8.09v33.91H732.33z M750.21,578.56l9.35,17.07h-5.34l-9.2-17.07
				H750.21z"/>
			<path class="st1" d="M772.58,562.38c-0.85,0-1.59-0.29-2.2-0.87c-0.61-0.58-0.92-1.28-0.92-2.1s0.31-1.52,0.92-2.1
				c0.61-0.58,1.35-0.87,2.2-0.87c0.85,0,1.59,0.29,2.2,0.87c0.61,0.58,0.92,1.28,0.92,2.1s-0.31,1.51-0.92,2.1
				S773.43,562.38,772.58,562.38z M770.35,595.63v-28.49h4.38v28.49H770.35z"/>
			<path class="st1" d="M808.15,573.52l-3.93,1.11c-0.25-0.65-0.61-1.29-1.08-1.92c-0.48-0.62-1.12-1.14-1.94-1.55
				c-0.82-0.41-1.86-0.61-3.13-0.61c-1.74,0-3.19,0.4-4.35,1.2c-1.16,0.8-1.73,1.81-1.73,3.03c0,1.09,0.4,1.95,1.19,2.58
				c0.79,0.63,2.03,1.16,3.71,1.58l4.23,1.04c2.55,0.62,4.45,1.56,5.69,2.83s1.87,2.9,1.87,4.89c0,1.63-0.47,3.09-1.4,4.38
				c-0.93,1.29-2.24,2.3-3.9,3.04c-1.67,0.74-3.61,1.11-5.83,1.11c-2.91,0-5.31-0.63-7.22-1.89c-1.9-1.26-3.11-3.1-3.62-5.53
				l4.16-1.04c0.4,1.53,1.15,2.68,2.25,3.45c1.11,0.77,2.56,1.15,4.35,1.15c2.04,0,3.66-0.44,4.87-1.31
				c1.21-0.87,1.81-1.92,1.81-3.14c0-0.99-0.35-1.82-1.04-2.5c-0.69-0.67-1.76-1.18-3.19-1.51l-4.75-1.11
				c-2.61-0.62-4.52-1.58-5.74-2.88c-1.22-1.3-1.83-2.94-1.83-4.91c0-1.61,0.45-3.03,1.36-4.27c0.91-1.24,2.15-2.21,3.73-2.91
				c1.58-0.71,3.37-1.06,5.37-1.06c2.82,0,5.04,0.62,6.65,1.86C806.33,569.86,807.47,571.49,808.15,573.52z"/>
			<path class="st1" d="M832.45,596.22c-2.75,0-5.11-0.61-7.1-1.83c-1.99-1.22-3.51-2.93-4.58-5.12s-1.6-4.75-1.6-7.67
				c0-2.92,0.53-5.49,1.6-7.73s2.57-3.98,4.49-5.23c1.92-1.26,4.17-1.88,6.74-1.88c1.48,0,2.95,0.25,4.4,0.74
				c1.45,0.49,2.76,1.29,3.95,2.4s2.13,2.57,2.84,4.39s1.06,4.06,1.06,6.72v1.85h-21.96v-3.78h17.51c0-1.61-0.32-3.04-0.96-4.3
				c-0.64-1.26-1.54-2.26-2.71-2.99c-1.17-0.73-2.54-1.09-4.13-1.09c-1.74,0-3.25,0.43-4.52,1.29c-1.27,0.86-2.24,1.97-2.92,3.35
				s-1.02,2.85-1.02,4.42v2.52c0,2.15,0.37,3.97,1.12,5.46c0.75,1.49,1.79,2.62,3.13,3.39c1.34,0.77,2.89,1.16,4.66,1.16
				c1.15,0,2.19-0.16,3.13-0.49c0.93-0.33,1.74-0.82,2.42-1.48s1.21-1.49,1.58-2.48l4.23,1.19c-0.45,1.44-1.19,2.69-2.24,3.78
				c-1.05,1.08-2.35,1.92-3.9,2.52C836.11,595.92,834.38,596.22,832.45,596.22z"/>
			<path class="st1" d="M888.46,567.13v3.71h-14.77v-3.71H888.46z M877.99,560.31h4.38v27.16c0,1.24,0.18,2.16,0.55,2.77
				s0.83,1.02,1.41,1.22c0.58,0.2,1.18,0.31,1.83,0.31c0.48,0,0.88-0.03,1.19-0.08c0.31-0.06,0.56-0.1,0.74-0.14l0.89,3.93
				c-0.3,0.11-0.71,0.23-1.24,0.34s-1.21,0.18-2.02,0.18c-1.24,0-2.45-0.27-3.63-0.8s-2.16-1.34-2.93-2.43
				c-0.77-1.09-1.16-2.46-1.16-4.12V560.31z"/>
			<path class="st1" d="M911.86,596.22c-2.57,0-4.83-0.61-6.76-1.84c-1.94-1.22-3.44-2.94-4.53-5.14s-1.62-4.77-1.62-7.72
				c0-2.97,0.54-5.56,1.62-7.77c1.08-2.21,2.59-3.93,4.53-5.16c1.94-1.22,4.19-1.84,6.76-1.84s4.83,0.61,6.76,1.84
				c1.94,1.22,3.44,2.94,4.53,5.16c1.08,2.21,1.62,4.8,1.62,7.77c0,2.94-0.54,5.52-1.62,7.72c-1.08,2.2-2.59,3.91-4.53,5.14
				C916.69,595.61,914.43,596.22,911.86,596.22z M911.86,592.29c1.95,0,3.56-0.5,4.82-1.5c1.26-1,2.2-2.32,2.8-3.95
				s0.91-3.4,0.91-5.3s-0.3-3.68-0.91-5.32s-1.54-2.97-2.8-3.99c-1.26-1.01-2.87-1.52-4.82-1.52s-3.56,0.51-4.82,1.52
				c-1.26,1.02-2.2,2.35-2.8,3.99s-0.91,3.42-0.91,5.32s0.3,3.67,0.91,5.3s1.54,2.95,2.8,3.95
				C908.3,591.79,909.91,592.29,911.86,592.29z"/>
			<path class="st1" d="M968.98,567.13v3.71h-14.77v-3.71H968.98z M958.52,560.31h4.38v27.16c0,1.24,0.18,2.16,0.55,2.77
				c0.37,0.61,0.83,1.02,1.41,1.22c0.58,0.2,1.18,0.31,1.83,0.31c0.48,0,0.88-0.03,1.19-0.08c0.31-0.06,0.56-0.1,0.74-0.14
				l0.89,3.93c-0.3,0.11-0.71,0.23-1.24,0.34c-0.53,0.12-1.21,0.18-2.02,0.18c-1.24,0-2.45-0.27-3.63-0.8
				c-1.18-0.53-2.16-1.34-2.93-2.43c-0.77-1.09-1.16-2.46-1.16-4.12V560.31z"/>
			<path class="st1" d="M985.19,578.49v17.14h-4.38v-37.99h4.38v13.95h0.37c0.67-1.47,1.67-2.64,3.01-3.52
				c1.34-0.87,3.13-1.31,5.37-1.31c1.94,0,3.64,0.39,5.1,1.16c1.46,0.77,2.59,1.95,3.4,3.54c0.81,1.59,1.21,3.61,1.21,6.06v18.11
				h-4.38v-17.81c0-2.26-0.58-4.02-1.75-5.26c-1.17-1.24-2.79-1.86-4.85-1.86c-1.43,0-2.72,0.3-3.85,0.91s-2.02,1.49-2.67,2.65
				C985.51,575.42,985.19,576.83,985.19,578.49z"/>
			<path class="st1" d="M1028.85,596.22c-2.75,0-5.11-0.61-7.1-1.83c-1.99-1.22-3.51-2.93-4.58-5.12c-1.07-2.2-1.61-4.75-1.61-7.67
				c0-2.92,0.54-5.49,1.61-7.73c1.07-2.23,2.57-3.98,4.49-5.23c1.92-1.26,4.17-1.88,6.74-1.88c1.48,0,2.95,0.25,4.4,0.74
				c1.45,0.49,2.76,1.29,3.95,2.4c1.19,1.11,2.13,2.57,2.84,4.39s1.06,4.06,1.06,6.72v1.85h-21.96v-3.78h17.51
				c0-1.61-0.32-3.04-0.96-4.3s-1.54-2.26-2.71-2.99s-2.54-1.09-4.13-1.09c-1.74,0-3.25,0.43-4.52,1.29s-2.24,1.97-2.92,3.35
				c-0.68,1.37-1.02,2.85-1.02,4.42v2.52c0,2.15,0.37,3.97,1.12,5.46s1.79,2.62,3.13,3.39s2.89,1.16,4.66,1.16
				c1.15,0,2.19-0.16,3.13-0.49s1.74-0.82,2.42-1.48c0.68-0.66,1.21-1.49,1.58-2.48l4.23,1.19c-0.45,1.44-1.19,2.69-2.25,3.78
				c-1.05,1.08-2.35,1.92-3.9,2.52C1032.52,595.92,1030.78,596.22,1028.85,596.22z"/>
			<path class="st1" d="M1084.86,567.13v3.71h-14.77v-3.71H1084.86z M1074.4,560.31h4.38v27.16c0,1.24,0.18,2.16,0.55,2.77
				c0.37,0.61,0.83,1.02,1.41,1.22c0.58,0.2,1.18,0.31,1.83,0.31c0.48,0,0.88-0.03,1.19-0.08c0.31-0.06,0.56-0.1,0.74-0.14
				l0.89,3.93c-0.3,0.11-0.71,0.23-1.24,0.34c-0.53,0.12-1.21,0.18-2.02,0.18c-1.24,0-2.45-0.27-3.63-0.8
				c-1.18-0.53-2.16-1.34-2.93-2.43c-0.77-1.09-1.16-2.46-1.16-4.12V560.31z"/>
			<path class="st1" d="M1108.26,596.22c-2.57,0-4.83-0.61-6.76-1.84s-3.44-2.94-4.53-5.14c-1.08-2.2-1.62-4.77-1.62-7.72
				c0-2.97,0.54-5.56,1.62-7.77c1.08-2.21,2.59-3.93,4.53-5.16s4.19-1.84,6.76-1.84s4.83,0.61,6.76,1.84s3.44,2.94,4.53,5.16
				c1.08,2.21,1.62,4.8,1.62,7.77c0,2.94-0.54,5.52-1.62,7.72s-2.59,3.91-4.53,5.14S1110.84,596.22,1108.26,596.22z M1108.26,592.29
				c1.95,0,3.56-0.5,4.82-1.5s2.2-2.32,2.8-3.95c0.61-1.63,0.91-3.4,0.91-5.3s-0.3-3.68-0.91-5.32c-0.61-1.64-1.54-2.97-2.8-3.99
				c-1.26-1.01-2.87-1.52-4.82-1.52s-3.56,0.51-4.82,1.52c-1.26,1.02-2.2,2.35-2.8,3.99c-0.61,1.64-0.91,3.42-0.91,5.32
				s0.3,3.67,0.91,5.3c0.61,1.63,1.54,2.95,2.8,3.95S1106.31,592.29,1108.26,592.29z"/>
			<path class="st1" d="M1133.08,606.31v-39.18h4.23v4.53h0.52c0.32-0.5,0.77-1.13,1.35-1.9c0.57-0.77,1.4-1.46,2.49-2.08
				c1.08-0.61,2.55-0.92,4.41-0.92c2.4,0,4.51,0.6,6.34,1.8c1.83,1.2,3.26,2.9,4.29,5.1c1.03,2.2,1.54,4.8,1.54,7.79
				c0,3.02-0.51,5.63-1.54,7.84c-1.03,2.21-2.45,3.91-4.27,5.12c-1.82,1.21-3.92,1.81-6.29,1.81c-1.83,0-3.3-0.31-4.4-0.92
				c-1.1-0.61-1.95-1.31-2.54-2.1s-1.05-1.44-1.37-1.96h-0.37v15.06H1133.08z M1137.38,581.38c0,2.15,0.32,4.05,0.95,5.69
				s1.55,2.92,2.76,3.84c1.21,0.92,2.7,1.38,4.45,1.38c1.83,0,3.36-0.49,4.59-1.46c1.23-0.97,2.16-2.28,2.78-3.93
				c0.62-1.65,0.94-3.49,0.94-5.52c0-2-0.31-3.81-0.92-5.43c-0.61-1.61-1.53-2.89-2.76-3.84c-1.23-0.95-2.77-1.42-4.63-1.42
				c-1.78,0-3.28,0.45-4.49,1.34c-1.21,0.9-2.13,2.15-2.75,3.75S1137.38,579.26,1137.38,581.38z"/>
			<path class="st1" d="M1201.63,596.22c-2.57,0-4.83-0.61-6.76-1.84s-3.44-2.94-4.53-5.14c-1.08-2.2-1.62-4.77-1.62-7.72
				c0-2.97,0.54-5.56,1.62-7.77c1.08-2.21,2.59-3.93,4.53-5.16s4.19-1.84,6.76-1.84s4.83,0.61,6.76,1.84s3.44,2.94,4.53,5.16
				c1.08,2.21,1.62,4.8,1.62,7.77c0,2.94-0.54,5.52-1.62,7.72s-2.59,3.91-4.53,5.14S1204.2,596.22,1201.63,596.22z M1201.63,592.29
				c1.95,0,3.56-0.5,4.82-1.5s2.2-2.32,2.8-3.95c0.61-1.63,0.91-3.4,0.91-5.3s-0.3-3.68-0.91-5.32c-0.61-1.64-1.54-2.97-2.8-3.99
				c-1.26-1.01-2.87-1.52-4.82-1.52s-3.56,0.51-4.82,1.52c-1.26,1.02-2.2,2.35-2.8,3.99c-0.61,1.64-0.91,3.42-0.91,5.32
				s0.3,3.67,0.91,5.3c0.61,1.63,1.54,2.95,2.8,3.95S1199.67,592.29,1201.63,592.29z"/>
			<path class="st1" d="M1239.13,567.13v3.71h-15.36v-3.71H1239.13z M1228.37,595.63V563.2c0-1.63,0.38-2.99,1.15-4.08
				c0.77-1.09,1.76-1.9,2.99-2.45s2.52-0.82,3.88-0.82c1.08,0,1.95,0.09,2.63,0.26c0.68,0.17,1.19,0.33,1.52,0.48l-1.26,3.79
				c-0.22-0.07-0.53-0.17-0.92-0.28c-0.39-0.11-0.9-0.17-1.53-0.17c-1.45,0-2.49,0.36-3.13,1.09s-0.96,1.8-0.96,3.21v31.39H1228.37z
				"/>
			<path class="st1" d="M1282.82,567.13v3.71h-14.77v-3.71H1282.82z M1272.36,560.31h4.38v27.16c0,1.24,0.18,2.16,0.55,2.77
				c0.37,0.61,0.83,1.02,1.41,1.22c0.58,0.2,1.18,0.31,1.83,0.31c0.48,0,0.88-0.03,1.19-0.08c0.31-0.06,0.56-0.1,0.74-0.14
				l0.89,3.93c-0.3,0.11-0.71,0.23-1.24,0.34c-0.53,0.12-1.21,0.18-2.02,0.18c-1.24,0-2.45-0.27-3.63-0.8
				c-1.18-0.53-2.16-1.34-2.93-2.43c-0.77-1.09-1.16-2.46-1.16-4.12V560.31z"/>
			<path class="st1" d="M1299.03,578.49v17.14h-4.38v-37.99h4.38v13.95h0.37c0.67-1.47,1.67-2.64,3.01-3.52
				c1.34-0.87,3.13-1.31,5.37-1.31c1.94,0,3.64,0.39,5.1,1.16c1.46,0.77,2.59,1.95,3.4,3.54c0.81,1.59,1.21,3.61,1.21,6.06v18.11
				h-4.38v-17.81c0-2.26-0.58-4.02-1.75-5.26c-1.17-1.24-2.79-1.86-4.85-1.86c-1.43,0-2.72,0.3-3.85,0.91s-2.02,1.49-2.67,2.65
				C1299.36,575.42,1299.03,576.83,1299.03,578.49z"/>
			<path class="st1" d="M1342.69,596.22c-2.75,0-5.11-0.61-7.1-1.83c-1.99-1.22-3.51-2.93-4.58-5.12c-1.07-2.2-1.61-4.75-1.61-7.67
				c0-2.92,0.54-5.49,1.61-7.73c1.07-2.23,2.57-3.98,4.49-5.23c1.92-1.26,4.17-1.88,6.74-1.88c1.48,0,2.95,0.25,4.4,0.74
				c1.45,0.49,2.76,1.29,3.95,2.4c1.19,1.11,2.13,2.57,2.84,4.39s1.06,4.06,1.06,6.72v1.85h-21.96v-3.78h17.51
				c0-1.61-0.32-3.04-0.96-4.3s-1.54-2.26-2.71-2.99s-2.54-1.09-4.13-1.09c-1.74,0-3.25,0.43-4.52,1.29s-2.24,1.97-2.92,3.35
				c-0.68,1.37-1.02,2.85-1.02,4.42v2.52c0,2.15,0.37,3.97,1.12,5.46s1.79,2.62,3.13,3.39s2.89,1.16,4.66,1.16
				c1.15,0,2.19-0.16,3.13-0.49s1.74-0.82,2.42-1.48c0.68-0.66,1.21-1.49,1.58-2.48l4.23,1.19c-0.45,1.44-1.19,2.69-2.25,3.78
				c-1.05,1.08-2.35,1.92-3.9,2.52C1346.36,595.92,1344.62,596.22,1342.69,596.22z"/>
			<path class="st1" d="M1397.89,596.22c-2.67,0-4.97-0.63-6.9-1.89c-1.93-1.26-3.41-3-4.45-5.21c-1.04-2.21-1.56-4.74-1.56-7.59
				c0-2.89,0.54-5.45,1.61-7.67c1.07-2.22,2.57-3.96,4.49-5.21c1.92-1.26,4.17-1.88,6.74-1.88c2,0,3.81,0.37,5.42,1.11
				s2.92,1.78,3.95,3.12c1.03,1.33,1.66,2.89,1.91,4.67h-4.38c-0.33-1.3-1.07-2.45-2.22-3.46c-1.14-1.01-2.68-1.51-4.61-1.51
				c-1.71,0-3.2,0.44-4.48,1.33c-1.28,0.88-2.28,2.13-2.99,3.73s-1.07,3.48-1.07,5.63c0,2.2,0.35,4.12,1.05,5.75
				c0.7,1.63,1.69,2.9,2.97,3.8c1.28,0.9,2.79,1.36,4.52,1.36c1.14,0,2.17-0.2,3.1-0.59c0.93-0.4,1.71-0.96,2.36-1.71
				c0.64-0.74,1.1-1.63,1.37-2.67h4.38c-0.25,1.68-0.86,3.19-1.83,4.54c-0.97,1.34-2.25,2.41-3.84,3.19
				C1401.83,595.83,1399.99,596.22,1397.89,596.22z"/>
			<path class="st1" d="M1438.65,583.98v-16.84h4.38v28.49h-4.38v-4.82h-0.3c-0.67,1.45-1.71,2.67-3.12,3.68
				c-1.41,1.01-3.19,1.51-5.34,1.51c-1.78,0-3.36-0.39-4.75-1.18c-1.38-0.79-2.47-1.97-3.26-3.56c-0.79-1.59-1.19-3.6-1.19-6.02
				v-18.11h4.38v17.81c0,2.08,0.58,3.74,1.75,4.97c1.17,1.24,2.66,1.86,4.48,1.86c1.09,0,2.2-0.28,3.33-0.84s2.08-1.41,2.86-2.56
				C1438.27,587.23,1438.65,585.76,1438.65,583.98z"/>
			<path class="st1" d="M1456.27,595.63v-28.49h4.23v4.3h0.3c0.52-1.41,1.46-2.55,2.82-3.43c1.36-0.88,2.89-1.32,4.6-1.32
				c0.32,0,0.72,0.01,1.21,0.02c0.48,0.01,0.85,0.03,1.09,0.06v4.45c-0.15-0.04-0.49-0.1-1.01-0.18c-0.53-0.08-1.08-0.12-1.66-0.12
				c-1.38,0-2.62,0.29-3.7,0.86c-1.08,0.58-1.94,1.37-2.56,2.38c-0.62,1.01-0.94,2.15-0.94,3.44v18.03H1456.27z"/>
			<path class="st1" d="M1504.23,567.13l-10.54,28.49h-4.45l-10.54-28.49h4.75l7.87,22.71h0.3l7.87-22.71H1504.23z"/>
			<path class="st1" d="M1527.19,596.22c-2.75,0-5.11-0.61-7.1-1.83c-1.99-1.22-3.51-2.93-4.58-5.12c-1.07-2.2-1.61-4.75-1.61-7.67
				c0-2.92,0.54-5.49,1.61-7.73c1.07-2.23,2.57-3.98,4.49-5.23c1.92-1.26,4.17-1.88,6.74-1.88c1.48,0,2.95,0.25,4.4,0.74
				c1.45,0.49,2.76,1.29,3.95,2.4c1.19,1.11,2.13,2.57,2.84,4.39s1.06,4.06,1.06,6.72v1.85h-21.96v-3.78h17.51
				c0-1.61-0.32-3.04-0.96-4.3s-1.54-2.26-2.71-2.99s-2.54-1.09-4.13-1.09c-1.74,0-3.25,0.43-4.52,1.29s-2.24,1.97-2.92,3.35
				c-0.68,1.37-1.02,2.85-1.02,4.42v2.52c0,2.15,0.37,3.97,1.12,5.46s1.79,2.62,3.13,3.39s2.89,1.16,4.66,1.16
				c1.15,0,2.19-0.16,3.13-0.49s1.74-0.82,2.42-1.48c0.68-0.66,1.21-1.49,1.58-2.48l4.23,1.19c-0.45,1.44-1.19,2.69-2.25,3.78
				c-1.05,1.08-2.35,1.92-3.9,2.52C1530.86,595.92,1529.12,596.22,1527.19,596.22z"/>
		</g>
	</g>
	<g>
		<defs>
			<circle id="SVGID_1_" cx="422.49" cy="513.47" r="200.49"/>
		</defs>
		<clipPath id="SVGID_00000160149242731577254650000001798474720675996816_">
			<use xlink:href="#SVGID_1_"  style="overflow:visible;"/>
		</clipPath>
		
			<linearGradient id="SVGID_00000078735251338712850740000002504033603350764716_" gradientUnits="userSpaceOnUse" x1="222" y1="515.0234" x2="622.98" y2="515.0234">
			<stop  offset="0" style="stop-color:#3D0056"/>
			<stop  offset="0.9997" style="stop-color:#E33FC5"/>
		</linearGradient>
		
			<circle style="clip-path:url(#SVGID_00000160149242731577254650000001798474720675996816_);fill:url(#SVGID_00000078735251338712850740000002504033603350764716_);" cx="422.49" cy="515.02" r="200.49"/>
		
			<linearGradient id="SVGID_00000036225628906205077650000006640177446819511720_" gradientUnits="userSpaceOnUse" x1="1004.0407" y1="-345.51" x2="1405.0208" y2="-345.51" gradientTransform="matrix(-1.836970e-16 -1 1 -1.836970e-16 768 1718)">
			<stop  offset="0" style="stop-color:#8A0BFF;stop-opacity:0"/>
			<stop  offset="0.9997" style="stop-color:#2A0056"/>
		</linearGradient>
		
			<circle style="clip-path:url(#SVGID_00000160149242731577254650000001798474720675996816_);fill:url(#SVGID_00000036225628906205077650000006640177446819511720_);" cx="422.49" cy="513.47" r="200.49"/>
		
			<path style="clip-path:url(#SVGID_00000160149242731577254650000001798474720675996816_);fill:none;stroke:#FFFFFF;stroke-width:4;" d="
			M413.65,597.4c-7.28-213.47,68.19-235.73,226.43-66.8"/>
		
			<path style="clip-path:url(#SVGID_00000160149242731577254650000001798474720675996816_);fill:none;stroke:#FFFFFF;stroke-width:4;" d="
			M413.77,590.68c-2.89,65.22-59.04,75.22-168.45,30.01"/>
		
			<path style="clip-path:url(#SVGID_00000160149242731577254650000001798474720675996816_);fill:none;stroke:#FFFFFF;stroke-width:4;" d="
			M397.13,457.01c-84.77-45.33-143.14-15.64-175.13,89.07"/>
		
			<path style="clip-path:url(#SVGID_00000160149242731577254650000001798474720675996816_);fill:none;stroke:#FFFFFF;stroke-width:4;" d="
			M397.06,457.15c96.09,46.62,156.38,19.63,180.84-80.97"/>
		
			<path style="clip-path:url(#SVGID_00000160149242731577254650000001798474720675996816_);fill:none;stroke:#FFFFFF;stroke-width:4;" d="
			M448.64,314.03c-14.89,84.11-60.48,125.2-136.77,123.26"/>
		
			<path style="clip-path:url(#SVGID_00000160149242731577254650000001798474720675996816_);fill:none;stroke:#FFFFFF;stroke-width:4;" d="
			M379.05,586.41c-59.21-49.85-107.42-42.89-144.62,20.89"/>
		
			<path style="clip-path:url(#SVGID_00000160149242731577254650000001798474720675996816_);fill:none;stroke:#FFFFFF;stroke-width:4;" d="
			M361.94,572.86c55.57,50.6,100.3,43.64,134.19-20.89"/>
		
			<path style="clip-path:url(#SVGID_00000160149242731577254650000001798474720675996816_);fill:none;stroke:#FFFFFF;stroke-width:4;" d="
			M618.39,655.32c-59.74-111.81-100.85-145.77-123.31-101.89"/>
	</g>
</g>
</svg>
